<svg width="100" height="100" viewBox="0 0 100 100" fill="none" xmlns="http://www.w3.org/2000/svg">
<circle cx="50" cy="50" r="50" fill="black"/>
<path d="M22.6562 60.358C20.5256 60.358 18.7017 59.9361 17.1847 59.0923C15.6676 58.2401 14.5043 57.0554 13.6946 55.5384C12.8849 54.0128 12.4801 52.2443 12.4801 50.233C12.4801 48.2216 12.8849 46.4574 13.6946 44.9403C14.5043 43.4148 15.6676 42.2301 17.1847 41.3864C18.7017 40.5341 20.5256 40.108 22.6562 40.108C24.5824 40.108 26.2486 40.4574 27.6548 41.1562C29.0696 41.8466 30.1648 42.8267 30.9403 44.0966C31.7159 45.358 32.108 46.8409 32.1165 48.5455H25.571C25.4773 47.5142 25.179 46.7301 24.6761 46.1932C24.1818 45.6477 23.5426 45.375 22.7585 45.375C22.1449 45.375 21.608 45.554 21.1477 45.9119C20.6875 46.2614 20.3295 46.794 20.0739 47.5099C19.8182 48.2173 19.6903 49.108 19.6903 50.1818C19.6903 51.2557 19.8182 52.1506 20.0739 52.8665C20.3295 53.5739 20.6875 54.1065 21.1477 54.4645C21.608 54.8139 22.1449 54.9886 22.7585 54.9886C23.2784 54.9886 23.7386 54.8693 24.1392 54.6307C24.5398 54.3835 24.8636 54.0256 25.1108 53.5568C25.3665 53.0795 25.5199 52.5 25.571 51.8182H32.1165C32.0909 53.5483 31.6946 55.0568 30.9276 56.3438C30.1605 57.6222 29.0739 58.6108 27.6676 59.3097C26.2699 60.0085 24.5994 60.358 22.6562 60.358ZM44.4883 60.358C42.3576 60.358 40.5337 59.9361 39.0167 59.0923C37.4996 58.2401 36.3363 57.0554 35.5266 55.5384C34.717 54.0128 34.3121 52.2443 34.3121 50.233C34.3121 48.2216 34.717 46.4574 35.5266 44.9403C36.3363 43.4148 37.4996 42.2301 39.0167 41.3864C40.5337 40.5341 42.3576 40.108 44.4883 40.108C46.619 40.108 48.4428 40.5341 49.9599 41.3864C51.4769 42.2301 52.6403 43.4148 53.4499 44.9403C54.2596 46.4574 54.6644 48.2216 54.6644 50.233C54.6644 52.2443 54.2596 54.0128 53.4499 55.5384C52.6403 57.0554 51.4769 58.2401 49.9599 59.0923C48.4428 59.9361 46.619 60.358 44.4883 60.358ZM44.5394 55.142C45.136 55.142 45.6516 54.9418 46.0863 54.5412C46.521 54.1406 46.8576 53.5696 47.0962 52.8281C47.3349 52.0866 47.4542 51.2045 47.4542 50.1818C47.4542 49.1506 47.3349 48.2685 47.0962 47.5355C46.8576 46.794 46.521 46.223 46.0863 45.8224C45.6516 45.4219 45.136 45.2216 44.5394 45.2216C43.9087 45.2216 43.3675 45.4219 42.9158 45.8224C42.4641 46.223 42.119 46.794 41.8803 47.5355C41.6417 48.2685 41.5224 49.1506 41.5224 50.1818C41.5224 51.2045 41.6417 52.0866 41.8803 52.8281C42.119 53.5696 42.4641 54.1406 42.9158 54.5412C43.3675 54.9418 43.9087 55.142 44.5394 55.142ZM57.5281 60V40.3636H64.2269V44.0966H64.4315C64.8406 42.8693 65.5394 41.8977 66.5281 41.1818C67.5167 40.4659 68.6928 40.108 70.0565 40.108C71.4371 40.108 72.6261 40.4744 73.6232 41.2074C74.6204 41.9318 75.2212 42.8949 75.4258 44.0966H75.6303C75.9627 42.8949 76.6701 41.9318 77.7525 41.2074C78.8349 40.4744 80.1048 40.108 81.5621 40.108C83.4457 40.108 84.9712 40.7131 86.1389 41.9233C87.315 43.1335 87.9031 44.7443 87.9031 46.7557V60H80.8462V48.5455C80.8462 47.6847 80.6289 47.0114 80.1942 46.5256C79.7596 46.0312 79.1758 45.7841 78.4428 45.7841C77.7184 45.7841 77.1431 46.0312 76.717 46.5256C76.2994 47.0114 76.0906 47.6847 76.0906 48.5455V60H69.3406V48.5455C69.3406 47.6847 69.1232 47.0114 68.6886 46.5256C68.2539 46.0312 67.6701 45.7841 66.9371 45.7841C66.4513 45.7841 66.0337 45.8949 65.6843 46.1165C65.3349 46.3381 65.0621 46.6577 64.8661 47.0753C64.6786 47.4844 64.5849 47.9744 64.5849 48.5455V60H57.5281Z" fill="white"/>
</svg>
