<svg width="18" height="763" viewBox="0 0 18 763" fill="none" xmlns="http://www.w3.org/2000/svg">
<line y1="134.676" x2="18" y2="134.676" stroke="white"/>
<line y1="134.676" x2="18" y2="134.676" stroke="black" stroke-opacity="0.7"/>
<line y1="94.6235" x2="9" y2="94.6235" stroke="white"/>
<line y1="94.6235" x2="9" y2="94.6235" stroke="black" stroke-opacity="0.7"/>
<line y1="98.6288" x2="9" y2="98.6288" stroke="white"/>
<line y1="98.6288" x2="9" y2="98.6288" stroke="black" stroke-opacity="0.7"/>
<line y1="118.655" x2="9" y2="118.655" stroke="white"/>
<line y1="118.655" x2="9" y2="118.655" stroke="black" stroke-opacity="0.7"/>
<line y1="122.66" x2="9" y2="122.66" stroke="white"/>
<line y1="122.66" x2="9" y2="122.66" stroke="black" stroke-opacity="0.7"/>
<line y1="126.666" x2="9" y2="126.666" stroke="white"/>
<line y1="126.666" x2="9" y2="126.666" stroke="black" stroke-opacity="0.7"/>
<line y1="130.671" x2="9" y2="130.671" stroke="white"/>
<line y1="130.671" x2="9" y2="130.671" stroke="black" stroke-opacity="0.7"/>
<line y1="110.645" x2="9" y2="110.645" stroke="white"/>
<line y1="110.645" x2="9" y2="110.645" stroke="black" stroke-opacity="0.7"/>
<line y1="114.65" x2="9" y2="114.65" stroke="white"/>
<line y1="114.65" x2="9" y2="114.65" stroke="black" stroke-opacity="0.7"/>
<line y1="102.634" x2="9" y2="102.634" stroke="white"/>
<line y1="102.634" x2="9" y2="102.634" stroke="black" stroke-opacity="0.7"/>
<line y1="106.639" x2="9" y2="106.639" stroke="white"/>
<line y1="106.639" x2="9" y2="106.639" stroke="black" stroke-opacity="0.7"/>
<line y1="179.735" x2="18" y2="179.735" stroke="white"/>
<line y1="179.735" x2="18" y2="179.735" stroke="black" stroke-opacity="0.7"/>
<line y1="138.681" x2="9" y2="138.681" stroke="white"/>
<line y1="138.681" x2="9" y2="138.681" stroke="black" stroke-opacity="0.7"/>
<line y1="142.687" x2="9" y2="142.687" stroke="white"/>
<line y1="142.687" x2="9" y2="142.687" stroke="black" stroke-opacity="0.7"/>
<line y1="163.714" x2="9" y2="163.714" stroke="white"/>
<line y1="163.714" x2="9" y2="163.714" stroke="black" stroke-opacity="0.7"/>
<line y1="167.719" x2="9" y2="167.719" stroke="white"/>
<line y1="167.719" x2="9" y2="167.719" stroke="black" stroke-opacity="0.7"/>
<line y1="171.725" x2="9" y2="171.725" stroke="white"/>
<line y1="171.725" x2="9" y2="171.725" stroke="black" stroke-opacity="0.7"/>
<line y1="175.73" x2="9" y2="175.73" stroke="white"/>
<line y1="175.73" x2="9" y2="175.73" stroke="black" stroke-opacity="0.7"/>
<line y1="155.704" x2="9" y2="155.704" stroke="white"/>
<line y1="155.704" x2="9" y2="155.704" stroke="black" stroke-opacity="0.7"/>
<line y1="159.709" x2="9" y2="159.709" stroke="white"/>
<line y1="159.709" x2="9" y2="159.709" stroke="black" stroke-opacity="0.7"/>
<line y1="147.693" x2="9" y2="147.693" stroke="white"/>
<line y1="147.693" x2="9" y2="147.693" stroke="black" stroke-opacity="0.7"/>
<line y1="151.698" x2="9" y2="151.698" stroke="white"/>
<line y1="151.698" x2="9" y2="151.698" stroke="black" stroke-opacity="0.7"/>
<line y1="224.794" x2="18" y2="224.794" stroke="white"/>
<line y1="224.794" x2="18" y2="224.794" stroke="black" stroke-opacity="0.7"/>
<line y1="183.74" x2="9" y2="183.74" stroke="white"/>
<line y1="183.74" x2="9" y2="183.74" stroke="black" stroke-opacity="0.7"/>
<line y1="187.746" x2="9" y2="187.746" stroke="white"/>
<line y1="187.746" x2="9" y2="187.746" stroke="black" stroke-opacity="0.7"/>
<line y1="208.773" x2="9" y2="208.773" stroke="white"/>
<line y1="208.773" x2="9" y2="208.773" stroke="black" stroke-opacity="0.7"/>
<line y1="212.779" x2="9" y2="212.779" stroke="white"/>
<line y1="212.779" x2="9" y2="212.779" stroke="black" stroke-opacity="0.7"/>
<line y1="216.784" x2="9" y2="216.784" stroke="white"/>
<line y1="216.784" x2="9" y2="216.784" stroke="black" stroke-opacity="0.7"/>
<line y1="220.789" x2="9" y2="220.789" stroke="white"/>
<line y1="220.789" x2="9" y2="220.789" stroke="black" stroke-opacity="0.7"/>
<line y1="199.762" x2="9" y2="199.762" stroke="white"/>
<line y1="199.762" x2="9" y2="199.762" stroke="black" stroke-opacity="0.7"/>
<line y1="203.767" x2="9" y2="203.767" stroke="white"/>
<line y1="203.767" x2="9" y2="203.767" stroke="black" stroke-opacity="0.7"/>
<line y1="191.751" x2="9" y2="191.751" stroke="white"/>
<line y1="191.751" x2="9" y2="191.751" stroke="black" stroke-opacity="0.7"/>
<line y1="195.756" x2="9" y2="195.756" stroke="white"/>
<line y1="195.756" x2="9" y2="195.756" stroke="black" stroke-opacity="0.7"/>
<line y1="269.853" x2="18" y2="269.853" stroke="white"/>
<line y1="269.853" x2="18" y2="269.853" stroke="black" stroke-opacity="0.7"/>
<line y1="228.8" x2="9" y2="228.8" stroke="white"/>
<line y1="228.8" x2="9" y2="228.8" stroke="black" stroke-opacity="0.7"/>
<line y1="232.805" x2="9" y2="232.805" stroke="white"/>
<line y1="232.805" x2="9" y2="232.805" stroke="black" stroke-opacity="0.7"/>
<line y1="252.831" x2="9" y2="252.831" stroke="white"/>
<line y1="252.831" x2="9" y2="252.831" stroke="black" stroke-opacity="0.7"/>
<line y1="256.836" x2="9" y2="256.836" stroke="white"/>
<line y1="256.836" x2="9" y2="256.836" stroke="black" stroke-opacity="0.7"/>
<line y1="260.842" x2="9" y2="260.842" stroke="white"/>
<line y1="260.842" x2="9" y2="260.842" stroke="black" stroke-opacity="0.7"/>
<line y1="265.848" x2="9" y2="265.848" stroke="white"/>
<line y1="265.848" x2="9" y2="265.848" stroke="black" stroke-opacity="0.7"/>
<line y1="244.821" x2="9" y2="244.821" stroke="white"/>
<line y1="244.821" x2="9" y2="244.821" stroke="black" stroke-opacity="0.7"/>
<line y1="248.826" x2="9" y2="248.826" stroke="white"/>
<line y1="248.826" x2="9" y2="248.826" stroke="black" stroke-opacity="0.7"/>
<line y1="236.81" x2="9" y2="236.81" stroke="white"/>
<line y1="236.81" x2="9" y2="236.81" stroke="black" stroke-opacity="0.7"/>
<line y1="240.815" x2="9" y2="240.815" stroke="white"/>
<line y1="240.815" x2="9" y2="240.815" stroke="black" stroke-opacity="0.7"/>
<line y1="313.911" x2="18" y2="313.911" stroke="white"/>
<line y1="313.911" x2="18" y2="313.911" stroke="black" stroke-opacity="0.7"/>
<line y1="273.859" x2="9" y2="273.859" stroke="white"/>
<line y1="273.859" x2="9" y2="273.859" stroke="black" stroke-opacity="0.7"/>
<line y1="277.864" x2="9" y2="277.864" stroke="white"/>
<line y1="277.864" x2="9" y2="277.864" stroke="black" stroke-opacity="0.7"/>
<line y1="297.89" x2="9" y2="297.89" stroke="white"/>
<line y1="297.89" x2="9" y2="297.89" stroke="black" stroke-opacity="0.7"/>
<line y1="301.896" x2="9" y2="301.896" stroke="white"/>
<line y1="301.896" x2="9" y2="301.896" stroke="black" stroke-opacity="0.7"/>
<line y1="305.901" x2="9" y2="305.901" stroke="white"/>
<line y1="305.901" x2="9" y2="305.901" stroke="black" stroke-opacity="0.7"/>
<line y1="309.906" x2="9" y2="309.906" stroke="white"/>
<line y1="309.906" x2="9" y2="309.906" stroke="black" stroke-opacity="0.7"/>
<line y1="289.88" x2="9" y2="289.88" stroke="white"/>
<line y1="289.88" x2="9" y2="289.88" stroke="black" stroke-opacity="0.7"/>
<line y1="293.885" x2="9" y2="293.885" stroke="white"/>
<line y1="293.885" x2="9" y2="293.885" stroke="black" stroke-opacity="0.7"/>
<line y1="281.869" x2="9" y2="281.869" stroke="white"/>
<line y1="281.869" x2="9" y2="281.869" stroke="black" stroke-opacity="0.7"/>
<line y1="285.875" x2="9" y2="285.875" stroke="white"/>
<line y1="285.875" x2="9" y2="285.875" stroke="black" stroke-opacity="0.7"/>
<line y1="358.97" x2="18" y2="358.97" stroke="white"/>
<line y1="358.97" x2="18" y2="358.97" stroke="black" stroke-opacity="0.7"/>
<line y1="317.917" x2="9" y2="317.917" stroke="white"/>
<line y1="317.917" x2="9" y2="317.917" stroke="black" stroke-opacity="0.7"/>
<line y1="321.922" x2="9" y2="321.922" stroke="white"/>
<line y1="321.922" x2="9" y2="321.922" stroke="black" stroke-opacity="0.7"/>
<line y1="342.949" x2="9" y2="342.949" stroke="white"/>
<line y1="342.949" x2="9" y2="342.949" stroke="black" stroke-opacity="0.7"/>
<line y1="346.955" x2="9" y2="346.955" stroke="white"/>
<line y1="346.955" x2="9" y2="346.955" stroke="black" stroke-opacity="0.7"/>
<line y1="350.96" x2="9" y2="350.96" stroke="white"/>
<line y1="350.96" x2="9" y2="350.96" stroke="black" stroke-opacity="0.7"/>
<line y1="354.965" x2="9" y2="354.965" stroke="white"/>
<line y1="354.965" x2="9" y2="354.965" stroke="black" stroke-opacity="0.7"/>
<line y1="334.939" x2="9" y2="334.939" stroke="white"/>
<line y1="334.939" x2="9" y2="334.939" stroke="black" stroke-opacity="0.7"/>
<line y1="338.944" x2="9" y2="338.944" stroke="white"/>
<line y1="338.944" x2="9" y2="338.944" stroke="black" stroke-opacity="0.7"/>
<line y1="326.928" x2="9" y2="326.928" stroke="white"/>
<line y1="326.928" x2="9" y2="326.928" stroke="black" stroke-opacity="0.7"/>
<line y1="330.934" x2="9" y2="330.934" stroke="white"/>
<line y1="330.934" x2="9" y2="330.934" stroke="black" stroke-opacity="0.7"/>
<line y1="404.03" x2="18" y2="404.03" stroke="white"/>
<line y1="404.03" x2="18" y2="404.03" stroke="black" stroke-opacity="0.7"/>
<line y1="362.976" x2="9" y2="362.976" stroke="white"/>
<line y1="362.976" x2="9" y2="362.976" stroke="black" stroke-opacity="0.7"/>
<line y1="366.981" x2="9" y2="366.981" stroke="white"/>
<line y1="366.981" x2="9" y2="366.981" stroke="black" stroke-opacity="0.7"/>
<line y1="388.009" x2="9" y2="388.009" stroke="white"/>
<line y1="388.009" x2="9" y2="388.009" stroke="black" stroke-opacity="0.7"/>
<line y1="392.014" x2="9" y2="392.014" stroke="white"/>
<line y1="392.014" x2="9" y2="392.014" stroke="black" stroke-opacity="0.7"/>
<line y1="396.019" x2="9" y2="396.019" stroke="white"/>
<line y1="396.019" x2="9" y2="396.019" stroke="black" stroke-opacity="0.7"/>
<line y1="400.024" x2="9" y2="400.024" stroke="white"/>
<line y1="400.024" x2="9" y2="400.024" stroke="black" stroke-opacity="0.7"/>
<line y1="378.997" x2="9" y2="378.997" stroke="white"/>
<line y1="378.997" x2="9" y2="378.997" stroke="black" stroke-opacity="0.7"/>
<line y1="384.003" x2="9" y2="384.003" stroke="white"/>
<line y1="384.003" x2="9" y2="384.003" stroke="black" stroke-opacity="0.7"/>
<line y1="370.986" x2="9" y2="370.986" stroke="white"/>
<line y1="370.986" x2="9" y2="370.986" stroke="black" stroke-opacity="0.7"/>
<line y1="374.991" x2="9" y2="374.991" stroke="white"/>
<line y1="374.991" x2="9" y2="374.991" stroke="black" stroke-opacity="0.7"/>
<line y1="449.089" x2="18" y2="449.089" stroke="white"/>
<line y1="449.089" x2="18" y2="449.089" stroke="black" stroke-opacity="0.7"/>
<line y1="408.035" x2="9" y2="408.035" stroke="white"/>
<line y1="408.035" x2="9" y2="408.035" stroke="black" stroke-opacity="0.7"/>
<line y1="412.04" x2="9" y2="412.04" stroke="white"/>
<line y1="412.04" x2="9" y2="412.04" stroke="black" stroke-opacity="0.7"/>
<line y1="432.066" x2="9" y2="432.066" stroke="white"/>
<line y1="432.066" x2="9" y2="432.066" stroke="black" stroke-opacity="0.7"/>
<line y1="436.072" x2="9" y2="436.072" stroke="white"/>
<line y1="436.072" x2="9" y2="436.072" stroke="black" stroke-opacity="0.7"/>
<line y1="441.078" x2="9" y2="441.078" stroke="white"/>
<line y1="441.078" x2="9" y2="441.078" stroke="black" stroke-opacity="0.7"/>
<line y1="445.083" x2="9" y2="445.083" stroke="white"/>
<line y1="445.083" x2="9" y2="445.083" stroke="black" stroke-opacity="0.7"/>
<line y1="424.056" x2="9" y2="424.056" stroke="white"/>
<line y1="424.056" x2="9" y2="424.056" stroke="black" stroke-opacity="0.7"/>
<line y1="428.061" x2="9" y2="428.061" stroke="white"/>
<line y1="428.061" x2="9" y2="428.061" stroke="black" stroke-opacity="0.7"/>
<line y1="416.045" x2="9" y2="416.045" stroke="white"/>
<line y1="416.045" x2="9" y2="416.045" stroke="black" stroke-opacity="0.7"/>
<line y1="420.051" x2="9" y2="420.051" stroke="white"/>
<line y1="420.051" x2="9" y2="420.051" stroke="black" stroke-opacity="0.7"/>
<line y1="493.147" x2="18" y2="493.147" stroke="white"/>
<line y1="493.147" x2="18" y2="493.147" stroke="black" stroke-opacity="0.7"/>
<line y1="453.094" x2="9" y2="453.094" stroke="white"/>
<line y1="453.094" x2="9" y2="453.094" stroke="black" stroke-opacity="0.7"/>
<line y1="457.099" x2="9" y2="457.099" stroke="white"/>
<line y1="457.099" x2="9" y2="457.099" stroke="black" stroke-opacity="0.7"/>
<line y1="477.125" x2="9" y2="477.125" stroke="white"/>
<line y1="477.125" x2="9" y2="477.125" stroke="black" stroke-opacity="0.7"/>
<line y1="481.131" x2="9" y2="481.131" stroke="white"/>
<line y1="481.131" x2="9" y2="481.131" stroke="black" stroke-opacity="0.7"/>
<line y1="485.136" x2="9" y2="485.136" stroke="white"/>
<line y1="485.136" x2="9" y2="485.136" stroke="black" stroke-opacity="0.7"/>
<line y1="489.141" x2="9" y2="489.141" stroke="white"/>
<line y1="489.141" x2="9" y2="489.141" stroke="black" stroke-opacity="0.7"/>
<line y1="469.115" x2="9" y2="469.115" stroke="white"/>
<line y1="469.115" x2="9" y2="469.115" stroke="black" stroke-opacity="0.7"/>
<line y1="473.12" x2="9" y2="473.12" stroke="white"/>
<line y1="473.12" x2="9" y2="473.12" stroke="black" stroke-opacity="0.7"/>
<line y1="461.104" x2="9" y2="461.104" stroke="white"/>
<line y1="461.104" x2="9" y2="461.104" stroke="black" stroke-opacity="0.7"/>
<line y1="465.11" x2="9" y2="465.11" stroke="white"/>
<line y1="465.11" x2="9" y2="465.11" stroke="black" stroke-opacity="0.7"/>
<line y1="538.206" x2="18" y2="538.206" stroke="white"/>
<line y1="538.206" x2="18" y2="538.206" stroke="black" stroke-opacity="0.7"/>
<line y1="497.152" x2="9" y2="497.152" stroke="white"/>
<line y1="497.152" x2="9" y2="497.152" stroke="black" stroke-opacity="0.7"/>
<line y1="502.158" x2="9" y2="502.158" stroke="white"/>
<line y1="502.158" x2="9" y2="502.158" stroke="black" stroke-opacity="0.7"/>
<line y1="522.185" x2="9" y2="522.185" stroke="white"/>
<line y1="522.185" x2="9" y2="522.185" stroke="black" stroke-opacity="0.7"/>
<line y1="526.19" x2="9" y2="526.19" stroke="white"/>
<line y1="526.19" x2="9" y2="526.19" stroke="black" stroke-opacity="0.7"/>
<line y1="530.195" x2="9" y2="530.195" stroke="white"/>
<line y1="530.195" x2="9" y2="530.195" stroke="black" stroke-opacity="0.7"/>
<line y1="534.2" x2="9" y2="534.2" stroke="white"/>
<line y1="534.2" x2="9" y2="534.2" stroke="black" stroke-opacity="0.7"/>
<line y1="514.174" x2="9" y2="514.174" stroke="white"/>
<line y1="514.174" x2="9" y2="514.174" stroke="black" stroke-opacity="0.7"/>
<line y1="518.179" x2="9" y2="518.179" stroke="white"/>
<line y1="518.179" x2="9" y2="518.179" stroke="black" stroke-opacity="0.7"/>
<line y1="506.164" x2="9" y2="506.164" stroke="white"/>
<line y1="506.164" x2="9" y2="506.164" stroke="black" stroke-opacity="0.7"/>
<line y1="510.169" x2="9" y2="510.169" stroke="white"/>
<line y1="510.169" x2="9" y2="510.169" stroke="black" stroke-opacity="0.7"/>
<line y1="583.265" x2="18" y2="583.265" stroke="white"/>
<line y1="583.265" x2="18" y2="583.265" stroke="black" stroke-opacity="0.7"/>
<line y1="542.211" x2="9" y2="542.211" stroke="white"/>
<line y1="542.211" x2="9" y2="542.211" stroke="black" stroke-opacity="0.7"/>
<line y1="546.216" x2="9" y2="546.216" stroke="white"/>
<line y1="546.216" x2="9" y2="546.216" stroke="black" stroke-opacity="0.7"/>
<line y1="567.244" x2="9" y2="567.244" stroke="white"/>
<line y1="567.244" x2="9" y2="567.244" stroke="black" stroke-opacity="0.7"/>
<line y1="571.249" x2="9" y2="571.249" stroke="white"/>
<line y1="571.249" x2="9" y2="571.249" stroke="black" stroke-opacity="0.7"/>
<line y1="575.254" x2="9" y2="575.254" stroke="white"/>
<line y1="575.254" x2="9" y2="575.254" stroke="black" stroke-opacity="0.7"/>
<line y1="579.26" x2="9" y2="579.26" stroke="white"/>
<line y1="579.26" x2="9" y2="579.26" stroke="black" stroke-opacity="0.7"/>
<line y1="559.233" x2="9" y2="559.233" stroke="white"/>
<line y1="559.233" x2="9" y2="559.233" stroke="black" stroke-opacity="0.7"/>
<line y1="563.239" x2="9" y2="563.239" stroke="white"/>
<line y1="563.239" x2="9" y2="563.239" stroke="black" stroke-opacity="0.7"/>
<line y1="550.221" x2="9" y2="550.221" stroke="white"/>
<line y1="550.221" x2="9" y2="550.221" stroke="black" stroke-opacity="0.7"/>
<line y1="554.227" x2="9" y2="554.227" stroke="white"/>
<line y1="554.227" x2="9" y2="554.227" stroke="black" stroke-opacity="0.7"/>
<line y1="628.324" x2="18" y2="628.324" stroke="white"/>
<line y1="628.324" x2="18" y2="628.324" stroke="black" stroke-opacity="0.7"/>
<line y1="587.27" x2="9" y2="587.27" stroke="white"/>
<line y1="587.27" x2="9" y2="587.27" stroke="black" stroke-opacity="0.7"/>
<line y1="591.275" x2="9" y2="591.275" stroke="white"/>
<line y1="591.275" x2="9" y2="591.275" stroke="black" stroke-opacity="0.7"/>
<line y1="611.302" x2="9" y2="611.302" stroke="white"/>
<line y1="611.302" x2="9" y2="611.302" stroke="black" stroke-opacity="0.7"/>
<line y1="615.307" x2="9" y2="615.307" stroke="white"/>
<line y1="615.307" x2="9" y2="615.307" stroke="black" stroke-opacity="0.7"/>
<line y1="620.313" x2="9" y2="620.313" stroke="white"/>
<line y1="620.313" x2="9" y2="620.313" stroke="black" stroke-opacity="0.7"/>
<line y1="624.319" x2="9" y2="624.319" stroke="white"/>
<line y1="624.319" x2="9" y2="624.319" stroke="black" stroke-opacity="0.7"/>
<line y1="603.291" x2="9" y2="603.291" stroke="white"/>
<line y1="603.291" x2="9" y2="603.291" stroke="black" stroke-opacity="0.7"/>
<line y1="607.296" x2="9" y2="607.296" stroke="white"/>
<line y1="607.296" x2="9" y2="607.296" stroke="black" stroke-opacity="0.7"/>
<line y1="595.281" x2="9" y2="595.281" stroke="white"/>
<line y1="595.281" x2="9" y2="595.281" stroke="black" stroke-opacity="0.7"/>
<line y1="599.286" x2="9" y2="599.286" stroke="white"/>
<line y1="599.286" x2="9" y2="599.286" stroke="black" stroke-opacity="0.7"/>
<line y1="672.382" x2="18" y2="672.382" stroke="white"/>
<line y1="672.382" x2="18" y2="672.382" stroke="black" stroke-opacity="0.7"/>
<line y1="632.329" x2="9" y2="632.329" stroke="white"/>
<line y1="632.329" x2="9" y2="632.329" stroke="black" stroke-opacity="0.7"/>
<line y1="636.334" x2="9" y2="636.334" stroke="white"/>
<line y1="636.334" x2="9" y2="636.334" stroke="black" stroke-opacity="0.7"/>
<line y1="656.361" x2="9" y2="656.361" stroke="white"/>
<line y1="656.361" x2="9" y2="656.361" stroke="black" stroke-opacity="0.7"/>
<line y1="660.366" x2="9" y2="660.366" stroke="white"/>
<line y1="660.366" x2="9" y2="660.366" stroke="black" stroke-opacity="0.7"/>
<line y1="664.371" x2="9" y2="664.371" stroke="white"/>
<line y1="664.371" x2="9" y2="664.371" stroke="black" stroke-opacity="0.7"/>
<line y1="668.376" x2="9" y2="668.376" stroke="white"/>
<line y1="668.376" x2="9" y2="668.376" stroke="black" stroke-opacity="0.7"/>
<line y1="648.35" x2="9" y2="648.35" stroke="white"/>
<line y1="648.35" x2="9" y2="648.35" stroke="black" stroke-opacity="0.7"/>
<line y1="652.355" x2="9" y2="652.355" stroke="white"/>
<line y1="652.355" x2="9" y2="652.355" stroke="black" stroke-opacity="0.7"/>
<line y1="640.34" x2="9" y2="640.34" stroke="white"/>
<line y1="640.34" x2="9" y2="640.34" stroke="black" stroke-opacity="0.7"/>
<line y1="644.345" x2="9" y2="644.345" stroke="white"/>
<line y1="644.345" x2="9" y2="644.345" stroke="black" stroke-opacity="0.7"/>
<line y1="717.441" x2="18" y2="717.441" stroke="white"/>
<line y1="717.441" x2="18" y2="717.441" stroke="black" stroke-opacity="0.7"/>
<line y1="677.388" x2="9" y2="677.388" stroke="white"/>
<line y1="677.388" x2="9" y2="677.388" stroke="black" stroke-opacity="0.7"/>
<line y1="681.394" x2="9" y2="681.394" stroke="white"/>
<line y1="681.394" x2="9" y2="681.394" stroke="black" stroke-opacity="0.7"/>
<line y1="701.42" x2="9" y2="701.42" stroke="white"/>
<line y1="701.42" x2="9" y2="701.42" stroke="black" stroke-opacity="0.7"/>
<line y1="705.425" x2="9" y2="705.425" stroke="white"/>
<line y1="705.425" x2="9" y2="705.425" stroke="black" stroke-opacity="0.7"/>
<line y1="709.43" x2="9" y2="709.43" stroke="white"/>
<line y1="709.43" x2="9" y2="709.43" stroke="black" stroke-opacity="0.7"/>
<line y1="713.436" x2="9" y2="713.436" stroke="white"/>
<line y1="713.436" x2="9" y2="713.436" stroke="black" stroke-opacity="0.7"/>
<line y1="693.409" x2="9" y2="693.409" stroke="white"/>
<line y1="693.409" x2="9" y2="693.409" stroke="black" stroke-opacity="0.7"/>
<line y1="697.415" x2="9" y2="697.415" stroke="white"/>
<line y1="697.415" x2="9" y2="697.415" stroke="black" stroke-opacity="0.7"/>
<line y1="685.399" x2="9" y2="685.399" stroke="white"/>
<line y1="685.399" x2="9" y2="685.399" stroke="black" stroke-opacity="0.7"/>
<line y1="689.404" x2="9" y2="689.404" stroke="white"/>
<line y1="689.404" x2="9" y2="689.404" stroke="black" stroke-opacity="0.7"/>
<line y1="762.5" x2="18" y2="762.5" stroke="white"/>
<line y1="762.5" x2="18" y2="762.5" stroke="black" stroke-opacity="0.7"/>
<line y1="721.446" x2="9" y2="721.446" stroke="white"/>
<line y1="721.446" x2="9" y2="721.446" stroke="black" stroke-opacity="0.7"/>
<line y1="725.451" x2="9" y2="725.451" stroke="white"/>
<line y1="725.451" x2="9" y2="725.451" stroke="black" stroke-opacity="0.7"/>
<line y1="746.479" x2="9" y2="746.479" stroke="white"/>
<line y1="746.479" x2="9" y2="746.479" stroke="black" stroke-opacity="0.7"/>
<line y1="750.484" x2="9" y2="750.484" stroke="white"/>
<line y1="750.484" x2="9" y2="750.484" stroke="black" stroke-opacity="0.7"/>
<line y1="754.49" x2="9" y2="754.49" stroke="white"/>
<line y1="754.49" x2="9" y2="754.49" stroke="black" stroke-opacity="0.7"/>
<line y1="758.495" x2="9" y2="758.495" stroke="white"/>
<line y1="758.495" x2="9" y2="758.495" stroke="black" stroke-opacity="0.7"/>
<line y1="738.468" x2="9" y2="738.468" stroke="white"/>
<line y1="738.468" x2="9" y2="738.468" stroke="black" stroke-opacity="0.7"/>
<line y1="742.474" x2="9" y2="742.474" stroke="white"/>
<line y1="742.474" x2="9" y2="742.474" stroke="black" stroke-opacity="0.7"/>
<line y1="729.457" x2="9" y2="729.457" stroke="white"/>
<line y1="729.457" x2="9" y2="729.457" stroke="black" stroke-opacity="0.7"/>
<line y1="734.463" x2="9" y2="734.463" stroke="white"/>
<line y1="734.463" x2="9" y2="734.463" stroke="black" stroke-opacity="0.7"/>
<line y1="0.5" x2="18" y2="0.5" stroke="white"/>
<line y1="0.5" x2="18" y2="0.5" stroke="black" stroke-opacity="0.7"/>
<line y1="45.3235" x2="18" y2="45.3235" stroke="white"/>
<line y1="45.3235" x2="18" y2="45.3235" stroke="black" stroke-opacity="0.7"/>
<line y1="4.57486" x2="9" y2="4.57486" stroke="white"/>
<line y1="4.57486" x2="9" y2="4.57486" stroke="black" stroke-opacity="0.7"/>
<line y1="8.64972" x2="9" y2="8.64972" stroke="white"/>
<line y1="8.64972" x2="9" y2="8.64972" stroke="black" stroke-opacity="0.7"/>
<line y1="29.0241" x2="9" y2="29.0241" stroke="white"/>
<line y1="29.0241" x2="9" y2="29.0241" stroke="black" stroke-opacity="0.7"/>
<line y1="33.0989" x2="9" y2="33.0989" stroke="white"/>
<line y1="33.0989" x2="9" y2="33.0989" stroke="black" stroke-opacity="0.7"/>
<line y1="37.1738" x2="9" y2="37.1738" stroke="white"/>
<line y1="37.1738" x2="9" y2="37.1738" stroke="black" stroke-opacity="0.7"/>
<line y1="41.2487" x2="9" y2="41.2487" stroke="white"/>
<line y1="41.2487" x2="9" y2="41.2487" stroke="black" stroke-opacity="0.7"/>
<line y1="20.8743" x2="9" y2="20.8743" stroke="white"/>
<line y1="20.8743" x2="9" y2="20.8743" stroke="black" stroke-opacity="0.7"/>
<line y1="24.9492" x2="9" y2="24.9492" stroke="white"/>
<line y1="24.9492" x2="9" y2="24.9492" stroke="black" stroke-opacity="0.7"/>
<line y1="12.7246" x2="9" y2="12.7246" stroke="white"/>
<line y1="12.7246" x2="9" y2="12.7246" stroke="black" stroke-opacity="0.7"/>
<line y1="16.7995" x2="9" y2="16.7995" stroke="white"/>
<line y1="16.7995" x2="9" y2="16.7995" stroke="black" stroke-opacity="0.7"/>
<line y1="90.1471" x2="18" y2="90.1471" stroke="white"/>
<line y1="90.1471" x2="18" y2="90.1471" stroke="black" stroke-opacity="0.7"/>
<line y1="49.3984" x2="9" y2="49.3984" stroke="white"/>
<line y1="49.3984" x2="9" y2="49.3984" stroke="black" stroke-opacity="0.7"/>
<line y1="53.4733" x2="9" y2="53.4733" stroke="white"/>
<line y1="53.4733" x2="9" y2="53.4733" stroke="black" stroke-opacity="0.7"/>
<line y1="73.8476" x2="9" y2="73.8476" stroke="white"/>
<line y1="73.8476" x2="9" y2="73.8476" stroke="black" stroke-opacity="0.7"/>
<line y1="77.9225" x2="9" y2="77.9225" stroke="white"/>
<line y1="77.9225" x2="9" y2="77.9225" stroke="black" stroke-opacity="0.7"/>
<line y1="81.9973" x2="9" y2="81.9973" stroke="white"/>
<line y1="81.9973" x2="9" y2="81.9973" stroke="black" stroke-opacity="0.7"/>
<line y1="86.0722" x2="9" y2="86.0722" stroke="white"/>
<line y1="86.0722" x2="9" y2="86.0722" stroke="black" stroke-opacity="0.7"/>
<line y1="65.6979" x2="9" y2="65.6979" stroke="white"/>
<line y1="65.6979" x2="9" y2="65.6979" stroke="black" stroke-opacity="0.7"/>
<line y1="69.7727" x2="9" y2="69.7727" stroke="white"/>
<line y1="69.7727" x2="9" y2="69.7727" stroke="black" stroke-opacity="0.7"/>
<line y1="57.5481" x2="9" y2="57.5481" stroke="white"/>
<line y1="57.5481" x2="9" y2="57.5481" stroke="black" stroke-opacity="0.7"/>
<line y1="61.623" x2="9" y2="61.623" stroke="white"/>
<line y1="61.623" x2="9" y2="61.623" stroke="black" stroke-opacity="0.7"/>
</svg>
